<svg width="150" height="118" viewBox="0 0 150 118" fill="none" xmlns="http://www.w3.org/2000/svg">
<path d="M3 15.5H147C148.381 15.5 149.5 16.6193 149.5 18V92C149.5 93.3807 148.381 94.5 147 94.5H3C1.61929 94.5 0.5 93.3807 0.5 92V18C0.5 16.6193 1.61929 15.5 3 15.5Z" fill="#EFF6FA" stroke="#009BDC"/>
<g clip-path="url(#clip0_5_135)">
<path d="M97.3942 62.473L51.6058 62.473C49.6176 62.473 48 64.0906 48 66.0788V84.3942C48 86.3824 49.6176 88 51.6058 88H97.3942C99.3824 88 101 86.3824 101 84.3942V66.0788C101 64.0906 99.3824 62.473 97.3942 62.473ZM99.2829 84.3942C99.2829 85.4357 98.4356 86.2829 97.3942 86.2829H51.6058C50.5644 86.2829 49.7171 85.4357 49.7171 84.3942V66.0788C49.7171 65.0373 50.5644 64.1901 51.6058 64.1901H97.3942C98.4356 64.1901 99.2829 65.0373 99.2829 66.0788V84.3942Z" fill="#009BDC" fill-opacity="0.45"/>
<path d="M85.4892 80.7883H63.5108C63.0367 80.7883 62.6523 81.1726 62.6523 81.6469C62.6523 82.1211 63.0367 82.5054 63.5108 82.5054H85.4892C85.9633 82.5054 86.3477 82.1211 86.3477 81.6469C86.3477 81.1726 85.9633 80.7883 85.4892 80.7883Z" fill="#009BDC"/>
<path d="M59.8477 80.7883H58.0162C57.5421 80.7883 57.1577 81.1726 57.1577 81.6469C57.1577 82.1211 57.5421 82.5054 58.0162 82.5054H59.8477C60.3219 82.5054 60.7063 82.1211 60.7063 81.6469C60.7063 81.1726 60.3219 80.7883 59.8477 80.7883Z" fill="#009BDC" fill-opacity="0.45"/>
<path d="M54.3531 80.7883H52.5216C52.0475 80.7883 51.6631 81.1726 51.6631 81.6469C51.6631 82.1211 52.0475 82.5054 52.5216 82.5054H54.3531C54.8273 82.5054 55.2117 82.1211 55.2117 81.6469C55.2117 81.1726 54.8273 80.7883 54.3531 80.7883Z" fill="#009BDC" fill-opacity="0.45"/>
<path d="M96.4784 80.7883H94.6469C94.1727 80.7883 93.7883 81.1726 93.7883 81.6469C93.7883 82.1211 94.1727 82.5054 94.6469 82.5054H96.4784C96.9525 82.5054 97.3369 82.1211 97.3369 81.6469C97.3369 81.1726 96.9525 80.7883 96.4784 80.7883Z" fill="#009BDC" fill-opacity="0.45"/>
<path d="M90.9838 80.7883H89.1523C88.6781 80.7883 88.2937 81.1726 88.2937 81.6469C88.2937 82.1211 88.6781 82.5054 89.1523 82.5054H90.9838C91.4579 82.5054 91.8423 82.1211 91.8423 81.6469C91.8423 81.1726 91.4579 80.7883 90.9838 80.7883Z" fill="#009BDC" fill-opacity="0.45"/>
<path d="M96.4784 77.1253H92.8153C92.3412 77.1253 91.9568 77.5095 91.9568 77.9838C91.9568 78.458 92.3412 78.8423 92.8153 78.8423H96.4784C96.9525 78.8423 97.3369 78.458 97.3369 77.9838C97.3369 77.5095 96.9525 77.1253 96.4784 77.1253Z" fill="#009BDC" fill-opacity="0.45"/>
<path d="M90.0108 77.9838C90.0108 77.5095 89.6264 77.1253 89.1523 77.1253H87.3207C86.8466 77.1253 86.4622 77.5095 86.4622 77.9838C86.4622 78.458 86.8466 78.8423 87.3207 78.8423H89.1523C89.6264 78.8423 90.0108 78.458 90.0108 77.9838Z" fill="#009BDC" fill-opacity="0.45"/>
<path d="M81.8261 78.8423H83.6577C84.1318 78.8423 84.5162 78.4581 84.5162 77.9838C84.5162 77.5095 84.1318 77.1253 83.6577 77.1253H81.8261C81.352 77.1253 80.9676 77.5095 80.9676 77.9838C80.9676 78.4581 81.352 78.8423 81.8261 78.8423Z" fill="#009BDC" fill-opacity="0.45"/>
<path d="M76.3315 78.8423H78.1631C78.6372 78.8423 79.0216 78.4581 79.0216 77.9838C79.0216 77.5095 78.6372 77.1253 78.1631 77.1253H76.3315C75.8574 77.1253 75.473 77.5095 75.473 77.9838C75.473 78.4581 75.8574 78.8423 76.3315 78.8423Z" fill="#009BDC" fill-opacity="0.45"/>
<path d="M70.8369 78.8423H72.6685C73.1426 78.8423 73.527 78.4581 73.527 77.9838C73.527 77.5095 73.1426 77.1253 72.6685 77.1253H70.8369C70.3628 77.1253 69.9784 77.5095 69.9784 77.9838C69.9784 78.4581 70.3628 78.8423 70.8369 78.8423Z" fill="#009BDC" fill-opacity="0.45"/>
<path d="M65.3423 78.8423H67.1739C67.648 78.8423 68.0324 78.4581 68.0324 77.9838C68.0324 77.5095 67.648 77.1253 67.1739 77.1253H65.3423C64.8682 77.1253 64.4838 77.5095 64.4838 77.9838C64.4838 78.4581 64.8682 78.8423 65.3423 78.8423Z" fill="#009BDC" fill-opacity="0.45"/>
<path d="M61.6793 77.1253H59.8477C59.3736 77.1253 58.9892 77.5095 58.9892 77.9838C58.9892 78.4581 59.3736 78.8423 59.8477 78.8423H61.6793C62.1534 78.8423 62.5378 78.4581 62.5378 77.9838C62.5378 77.5095 62.1534 77.1253 61.6793 77.1253Z" fill="#009BDC" fill-opacity="0.45"/>
<path d="M56.1847 77.1253H52.5216C52.0475 77.1253 51.6631 77.5095 51.6631 77.9838C51.6631 78.4581 52.0475 78.8423 52.5216 78.8423H56.1847C56.6588 78.8423 57.0432 78.4581 57.0432 77.9838C57.0432 77.5095 56.6588 77.1253 56.1847 77.1253Z" fill="#009BDC" fill-opacity="0.45"/>
<path d="M96.4784 69.7991H92.8153C92.3412 69.7991 91.9568 70.1834 91.9568 70.6577C91.9568 71.1319 92.3412 71.5162 92.8153 71.5162H96.4784C96.9525 71.5162 97.3369 71.1319 97.3369 70.6577C97.3369 70.1834 96.9525 69.7991 96.4784 69.7991Z" fill="#009BDC" fill-opacity="0.45"/>
<path d="M87.3207 71.5162H89.1523C89.6264 71.5162 90.0108 71.1319 90.0108 70.6577C90.0108 70.1834 89.6264 69.7991 89.1523 69.7991H87.3207C86.8466 69.7991 86.4622 70.1834 86.4622 70.6577C86.4622 71.1319 86.8466 71.5162 87.3207 71.5162Z" fill="#009BDC" fill-opacity="0.45"/>
<path d="M81.8261 71.5162H83.6577C84.1318 71.5162 84.5162 71.1319 84.5162 70.6577C84.5162 70.1834 84.1318 69.7991 83.6577 69.7991H81.8261C81.352 69.7991 80.9676 70.1834 80.9676 70.6577C80.9676 71.1319 81.352 71.5162 81.8261 71.5162Z" fill="#009BDC" fill-opacity="0.45"/>
<path d="M76.3315 71.5162H78.1631C78.6372 71.5162 79.0216 71.1319 79.0216 70.6577C79.0216 70.1834 78.6372 69.7991 78.1631 69.7991H76.3315C75.8574 69.7991 75.473 70.1834 75.473 70.6577C75.473 71.1319 75.8574 71.5162 76.3315 71.5162Z" fill="#009BDC" fill-opacity="0.45"/>
<path d="M70.8369 71.5162H72.6685C73.1426 71.5162 73.527 71.1319 73.527 70.6577C73.527 70.1834 73.1426 69.7991 72.6685 69.7991H70.8369C70.3628 69.7991 69.9784 70.1834 69.9784 70.6577C69.9784 71.1319 70.3628 71.5162 70.8369 71.5162Z" fill="#009BDC" fill-opacity="0.45"/>
<path d="M65.3423 71.5162H67.1739C67.648 71.5162 68.0324 71.1319 68.0324 70.6577C68.0324 70.1834 67.648 69.7991 67.1739 69.7991H65.3423C64.8682 69.7991 64.4838 70.1834 64.4838 70.6577C64.4838 71.1319 64.8682 71.5162 65.3423 71.5162Z" fill="#009BDC" fill-opacity="0.45"/>
<path d="M59.8477 71.5162H61.6793C62.1534 71.5162 62.5378 71.1319 62.5378 70.6577C62.5378 70.1834 62.1534 69.7991 61.6793 69.7991H59.8477C59.3736 69.7991 58.9892 70.1834 58.9892 70.6577C58.9892 71.1319 59.3736 71.5162 59.8477 71.5162Z" fill="#009BDC" fill-opacity="0.45"/>
<path d="M52.5216 71.5162H56.1847C56.6588 71.5162 57.0432 71.1319 57.0432 70.6577C57.0432 70.1834 56.6588 69.7991 56.1847 69.7991H52.5216C52.0475 69.7991 51.6631 70.1834 51.6631 70.6577C51.6631 71.1319 52.0475 71.5162 52.5216 71.5162Z" fill="#009BDC" fill-opacity="0.45"/>
<path d="M96.4784 73.4622H94.6469C94.1727 73.4622 93.7883 73.8465 93.7883 74.3207C93.7883 74.795 94.1727 75.1793 94.6469 75.1793H96.4784C96.9525 75.1793 97.3369 74.795 97.3369 74.3207C97.3369 73.8465 96.9525 73.4622 96.4784 73.4622Z" fill="#009BDC" fill-opacity="0.45"/>
<path d="M90.9838 73.4622H89.1523C88.6781 73.4622 88.2937 73.8465 88.2937 74.3207C88.2937 74.795 88.6781 75.1793 89.1523 75.1793H90.9838C91.4579 75.1793 91.8423 74.795 91.8423 74.3207C91.8423 73.8465 91.4579 73.4622 90.9838 73.4622Z" fill="#009BDC" fill-opacity="0.45"/>
<path d="M85.4892 73.4622H83.6577C83.1835 73.4622 82.7991 73.8465 82.7991 74.3207C82.7991 74.795 83.1835 75.1793 83.6577 75.1793H85.4892C85.9633 75.1793 86.3477 74.795 86.3477 74.3207C86.3477 73.8465 85.9633 73.4622 85.4892 73.4622Z" fill="#009BDC" fill-opacity="0.45"/>
<path d="M79.9946 73.4622H78.1631C77.6889 73.4622 77.3045 73.8465 77.3045 74.3207C77.3045 74.795 77.6889 75.1793 78.1631 75.1793H79.9946C80.4687 75.1793 80.8531 74.795 80.8531 74.3207C80.8531 73.8465 80.4687 73.4622 79.9946 73.4622Z" fill="#009BDC" fill-opacity="0.45"/>
<path d="M74.5 73.4622H72.6685C72.1943 73.4622 71.8099 73.8465 71.8099 74.3207C71.8099 74.795 72.1943 75.1793 72.6685 75.1793H74.5C74.9741 75.1793 75.3585 74.795 75.3585 74.3207C75.3585 73.8465 74.9741 73.4622 74.5 73.4622Z" fill="#009BDC" fill-opacity="0.45"/>
<path d="M69.0054 73.4622H67.1739C66.6997 73.4622 66.3153 73.8465 66.3153 74.3207C66.3153 74.795 66.6997 75.1793 67.1739 75.1793H69.0054C69.4795 75.1793 69.8639 74.795 69.8639 74.3207C69.8639 73.8465 69.4795 73.4622 69.0054 73.4622Z" fill="#009BDC" fill-opacity="0.45"/>
<path d="M63.5108 73.4622H61.6793C61.2051 73.4622 60.8207 73.8465 60.8207 74.3207C60.8207 74.795 61.2051 75.1793 61.6793 75.1793H63.5108C63.9849 75.1793 64.3693 74.795 64.3693 74.3207C64.3693 73.8465 63.9849 73.4622 63.5108 73.4622Z" fill="#009BDC" fill-opacity="0.45"/>
<path d="M52.5216 75.1793H58.0162C58.4903 75.1793 58.8747 74.795 58.8747 74.3207C58.8747 73.8465 58.4903 73.4622 58.0162 73.4622H52.5216C52.0475 73.4622 51.6631 73.8465 51.6631 74.3207C51.6631 74.795 52.0475 75.1793 52.5216 75.1793Z" fill="#009BDC" fill-opacity="0.45"/>
<path d="M96.4784 66.1361H94.6469C94.1727 66.1361 93.7883 66.5203 93.7883 66.9946C93.7883 67.4689 94.1727 67.8531 94.6469 67.8531H96.4784C96.9525 67.8531 97.3369 67.4689 97.3369 66.9946C97.3369 66.5203 96.9525 66.1361 96.4784 66.1361Z" fill="#009BDC" fill-opacity="0.45"/>
<path d="M90.9838 66.1361H89.1523C88.6781 66.1361 88.2937 66.5203 88.2937 66.9946C88.2937 67.4689 88.6781 67.8531 89.1523 67.8531H90.9838C91.4579 67.8531 91.8423 67.4689 91.8423 66.9946C91.8423 66.5203 91.4579 66.1361 90.9838 66.1361Z" fill="#009BDC" fill-opacity="0.45"/>
<path d="M85.4892 66.1361H83.6577C83.1835 66.1361 82.7991 66.5203 82.7991 66.9946C82.7991 67.4689 83.1835 67.8531 83.6577 67.8531H85.4892C85.9633 67.8531 86.3477 67.4689 86.3477 66.9946C86.3477 66.5203 85.9633 66.1361 85.4892 66.1361Z" fill="#009BDC" fill-opacity="0.45"/>
<path d="M78.1631 67.8531H79.9946C80.4687 67.8531 80.8531 67.4689 80.8531 66.9946C80.8531 66.5203 80.4687 66.1361 79.9946 66.1361H78.1631C77.6889 66.1361 77.3045 66.5203 77.3045 66.9946C77.3045 67.4689 77.6889 67.8531 78.1631 67.8531Z" fill="#009BDC" fill-opacity="0.45"/>
<path d="M72.6685 67.8531H74.5C74.9741 67.8531 75.3585 67.4689 75.3585 66.9946C75.3585 66.5203 74.9741 66.1361 74.5 66.1361H72.6685C72.1943 66.1361 71.8099 66.5203 71.8099 66.9946C71.8099 67.4689 72.1943 67.8531 72.6685 67.8531Z" fill="#009BDC" fill-opacity="0.45"/>
<path d="M67.1739 67.8531H69.0054C69.4795 67.8531 69.8639 67.4689 69.8639 66.9946C69.8639 66.5203 69.4795 66.1361 69.0054 66.1361H67.1739C66.6997 66.1361 66.3153 66.5203 66.3153 66.9946C66.3153 67.4689 66.6997 67.8531 67.1739 67.8531Z" fill="#009BDC" fill-opacity="0.45"/>
<path d="M61.6793 67.8531H63.5108C63.9849 67.8531 64.3693 67.4689 64.3693 66.9946C64.3693 66.5203 63.9849 66.1361 63.5108 66.1361H61.6793C61.2051 66.1361 60.8207 66.5203 60.8207 66.9946C60.8207 67.4689 61.2051 67.8531 61.6793 67.8531Z" fill="#009BDC" fill-opacity="0.45"/>
<path d="M52.5216 67.8531H58.0162C58.4903 67.8531 58.8747 67.4689 58.8747 66.9946C58.8747 66.5203 58.4903 66.1361 58.0162 66.1361H52.5216C52.0475 66.1361 51.6631 66.5203 51.6631 66.9946C51.6631 67.4689 52.0475 67.8531 52.5216 67.8531Z" fill="#009BDC" fill-opacity="0.45"/>
</g>
<path d="M121.051 74.9763L121.051 76.1968C121.051 76.4215 121.233 76.6036 121.458 76.6036C121.683 76.6036 121.865 76.4215 121.865 76.1968L121.865 74.9763C121.865 74.7516 121.683 74.5695 121.458 74.5695C121.233 74.5695 121.051 74.7516 121.051 74.9763Z" fill="#009BDC"/>
<path d="M121.051 82.5024H121.865C123.549 82.5005 124.914 81.1355 124.916 79.4512L124.916 76.3999L122.243 76.3999C122.151 76.7588 121.828 77.01 121.458 77.01C121.088 77.01 120.765 76.7588 120.673 76.3999L118 76.3999L118 79.4512C118.002 81.1355 119.367 82.5005 121.051 82.5024Z" fill="#009BDC" fill-opacity="0.4"/>
<path d="M121.661 72.0009L121.661 74.1913C122.02 74.2837 122.27 74.6061 122.272 74.976V75.9931L124.916 75.9931L124.916 74.976C124.913 73.6322 124.034 72.4475 122.748 72.0562C122.526 71.9884 122.526 72.0009 121.661 72.0009Z" fill="#009BDC" fill-opacity="0.4"/>
<path d="M121.255 72.0009L121.255 74.1913C120.896 74.2837 120.646 74.6061 120.644 74.976L120.644 75.9931L118 75.9931L118 74.976C118.003 73.6322 118.882 72.4475 120.168 72.0562C120.39 71.9884 120.39 72.0009 121.255 72.0009Z" fill="#009BDC"/>
<path d="M19.5681 40.1254L19.5621 40.1149L19.5558 40.1047L15.3293 33.2434C13.8947 30.9145 15.5746 27.9155 18.3098 27.9224L130.718 28.2034C133.398 28.2101 135.071 31.1092 133.736 33.4327L129.806 40.272L123.225 50.9899C122.59 52.0238 121.464 52.6538 120.25 52.6538L28.6806 52.6538C27.4217 52.6538 26.2604 51.976 25.6413 50.8798L19.5681 40.1254Z" stroke="#009BDC" stroke-opacity="0.45" stroke-width="1.26923"/>
<path d="M20.5619 40.2021L20.5622 40.202L20.5573 40.1942L15.957 32.8973C14.841 31.0572 16.1691 28.7045 18.3216 28.7098L130.687 28.9835L130.687 28.8264V28.9835C133.051 28.9835 134.448 31.6307 133.115 33.582L132.936 33.8432L132.936 33.8429L132.929 33.8541L129.151 40.484L129.15 40.4866L123.038 50.3074C122.314 51.4707 121.04 52.1779 119.67 52.1779L29.1255 52.1779C27.5616 52.1779 26.1436 51.2589 25.5049 49.8313L23.8996 46.2429L23.9001 46.2427L23.8937 46.231L20.5619 40.2021Z" stroke="#009BDC" stroke-width="0.317308"/>
<path d="M17.6249 26.9519L130.364 26.9519C134.308 26.9519 136.746 31.2526 134.72 34.6365L124.653 51.4539C123.736 52.9855 122.082 53.9231 120.297 53.9231L28.5774 53.9231C26.733 53.9231 25.0337 52.9228 24.1385 51.3102L14.0183 33.0789C12.4921 30.3295 14.4803 26.9519 17.6249 26.9519Z" stroke="#009BDC" stroke-width="1.90385"/>
<path d="M95.5 107.5C95.5 110.102 93.3255 112.599 89.4834 114.475C85.6747 116.335 80.3779 117.5 74.5 117.5C68.6221 117.5 63.3253 116.335 59.5166 114.475C55.6745 112.599 53.5 110.102 53.5 107.5C53.5 104.898 55.6745 102.401 59.5166 100.525C63.3253 98.6646 68.6221 97.5 74.5 97.5C80.3779 97.5 85.6747 98.6646 89.4834 100.525C93.3255 102.401 95.5 104.898 95.5 107.5Z" fill="#EFF6FA" stroke="#009BDC"/>
<path d="M75.4824 102.026V112H73.5137V104.296L71.1484 105.048V103.496L75.2705 102.026H75.4824Z" fill="#009BDC"/>
<defs>
<clipPath id="clip0_5_135">
<rect width="53" height="53" fill="white" transform="translate(48 48)"/>
</clipPath>
</defs>
</svg>
