<svg width="150" height="118" viewBox="0 0 150 118" fill="none" xmlns="http://www.w3.org/2000/svg">
<path d="M0.5 18C0.5 16.6193 1.61929 15.5 3 15.5H147C148.381 15.5 149.5 16.6193 149.5 18V92C149.5 93.3807 148.381 94.5 147 94.5H3C1.61929 94.5 0.5 93.3807 0.5 92V18Z" fill="#EFF6FA" stroke="#009BDC"/>
<path d="M130.687 28.9835H130.687C133.051 28.9835 134.448 31.6307 133.115 33.582L132.936 33.8432L132.936 33.8429L132.929 33.8541L129.151 40.484L129.15 40.4866L123.038 50.3074C122.314 51.4707 121.04 52.1779 119.67 52.1779L29.1255 52.1779C27.5616 52.1779 26.1436 51.2589 25.5049 49.8313L23.8996 46.2429L23.9001 46.2427L23.8937 46.231L20.5619 40.2021L20.5622 40.202L20.5573 40.1942L15.957 32.8973C14.841 31.0572 16.1691 28.7045 18.3216 28.7098L130.687 28.9835Z" stroke="#009BDC" stroke-width="0.317308"/>
<path d="M19.5681 40.1254L19.5621 40.1149L19.5558 40.1047L15.3293 33.2434C13.8947 30.9145 15.5746 27.9155 18.3098 27.9224L130.718 28.2034C133.398 28.2101 135.071 31.1092 133.736 33.4327L129.806 40.272L123.225 50.9899C122.59 52.0238 121.464 52.6538 120.25 52.6538L28.6806 52.6538C27.4217 52.6538 26.2604 51.976 25.6413 50.8798L19.5681 40.1254Z" stroke="#009BDC" stroke-opacity="0.45" stroke-width="1.26923"/>
<path d="M14.0183 33.0789C12.4921 30.3295 14.4803 26.9519 17.6249 26.9519L130.364 26.9519C134.308 26.9519 136.746 31.2526 134.72 34.6365L124.653 51.4539C123.736 52.9855 122.082 53.9231 120.297 53.9231L28.5774 53.9231C26.733 53.9231 25.0337 52.9228 24.1385 51.3102L14.0183 33.0789Z" stroke="#009BDC" stroke-width="1.90385"/>
<path d="M54.5 107.5C54.5 110.102 52.3255 112.599 48.4834 114.475C44.6747 116.335 39.3779 117.5 33.5 117.5C27.6221 117.5 22.3253 116.335 18.5166 114.475C14.6745 112.599 12.5 110.102 12.5 107.5C12.5 104.898 14.6745 102.401 18.5166 100.525C22.3253 98.6646 27.6221 97.5 33.5 97.5C39.3779 97.5 44.6747 98.6646 48.4834 100.525C52.3255 102.401 54.5 104.898 54.5 107.5Z" fill="#EFF6FA" stroke="#009BDC"/>
<path d="M34.4824 102.026V112H32.5137V104.296L30.1484 105.048V103.496L34.2705 102.026H34.4824Z" fill="#009BDC"/>
<path d="M139.5 107.5C139.5 110.102 137.325 112.599 133.483 114.475C129.675 116.335 124.378 117.5 118.5 117.5C112.622 117.5 107.325 116.335 103.517 114.475C99.6745 112.599 97.5 110.102 97.5 107.5C97.5 104.898 99.6745 102.401 103.517 100.525C107.325 98.6646 112.622 97.5 118.5 97.5C124.378 97.5 129.675 98.6646 133.483 100.525C137.325 102.401 139.5 104.898 139.5 107.5Z" fill="#EFF6FA" stroke="#009BDC"/>
<path d="M121.492 110.462V112H114.684V110.688L117.903 107.235C118.227 106.875 118.482 106.559 118.669 106.285C118.856 106.007 118.99 105.759 119.072 105.54C119.159 105.317 119.202 105.105 119.202 104.904C119.202 104.604 119.152 104.346 119.052 104.132C118.951 103.913 118.803 103.744 118.607 103.626C118.416 103.507 118.179 103.448 117.896 103.448C117.596 103.448 117.336 103.521 117.117 103.667C116.903 103.813 116.739 104.016 116.625 104.275C116.516 104.535 116.461 104.829 116.461 105.157H114.485C114.485 104.565 114.627 104.022 114.909 103.53C115.192 103.034 115.59 102.639 116.105 102.348C116.62 102.051 117.231 101.903 117.938 101.903C118.635 101.903 119.223 102.017 119.701 102.245C120.184 102.468 120.549 102.792 120.795 103.216C121.046 103.635 121.171 104.136 121.171 104.72C121.171 105.048 121.118 105.369 121.014 105.684C120.909 105.993 120.758 106.303 120.562 106.613C120.371 106.919 120.139 107.229 119.865 107.543C119.592 107.857 119.289 108.183 118.956 108.521L117.227 110.462H121.492Z" fill="#009BDC"/>
<path d="M88.0536 61.7037H70.6534L71.5032 60.529C71.5096 60.5211 71.5171 60.5114 71.5251 60.5H86.8498L88.0536 61.7037Z" fill="#009BDC" fill-opacity="0.45" stroke="#009BDC"/>
<mask id="path-13-inside-1_5_46" fill="white">
<path d="M60.5517 68.3018H89.9429L88.8803 67.3055H61.6143L60.5517 68.3018Z"/>
</mask>
<path d="M60.5517 68.3018H89.9429L88.8803 67.3055H61.6143L60.5517 68.3018Z" fill="#009BDC" fill-opacity="0.45"/>
<path d="M60.5517 68.3018L59.8677 67.5722L58.0229 69.3018H60.5517V68.3018ZM89.9429 68.3018V69.3018H92.4717L90.6269 67.5722L89.9429 68.3018ZM88.8803 67.3055L89.5642 66.576L89.2757 66.3055H88.8803V67.3055ZM61.6143 67.3055V66.3055H61.2188L60.9304 66.576L61.6143 67.3055ZM60.5517 69.3018H89.9429V67.3018H60.5517V69.3018ZM90.6269 67.5722L89.5642 66.576L88.1963 68.0351L89.259 69.0313L90.6269 67.5722ZM88.8803 66.3055H61.6143V68.3055H88.8803V66.3055ZM60.9304 66.576L59.8677 67.5722L61.2356 69.0313L62.2982 68.0351L60.9304 66.576Z" fill="#009BDC" mask="url(#path-13-inside-1_5_46)"/>
<path d="M62.441 61.7098L63.6508 60.5H68.8L67.9274 61.7098H62.441Z" fill="#009BDC" fill-opacity="0.45" stroke="#009BDC"/>
<path d="M83.9864 65.598H69.2568V63.9173H84.4201C84.0683 64.1437 83.834 64.5384 83.834 64.9931C83.834 65.2118 83.8892 65.4178 83.9864 65.598ZM86.0455 64.1193C85.9735 64.0425 85.8922 63.9746 85.8033 63.9173H86.4717C86.3142 63.9535 86.1695 64.0236 86.0455 64.1193ZM89.8859 64.1862C89.7463 64.056 89.5731 63.9615 89.381 63.9173H89.8357L89.8859 64.1862ZM90.1268 65.4747L90.1498 65.598H90.0565C90.0825 65.5586 90.106 65.5174 90.1268 65.4747Z" fill="#009BDC" fill-opacity="0.45" stroke="#009BDC"/>
<path d="M69.2568 71.69V70.0093H90.5629L90.8885 71.69H69.2568Z" fill="#009BDC" fill-opacity="0.45" stroke="#009BDC"/>
<path d="M60.3508 65.598L60.665 63.9173H67.0493V65.598H60.3508Z" fill="#009BDC" fill-opacity="0.45" stroke="#009BDC"/>
<path d="M67.0493 70.0093V71.69H59.6061L59.9317 70.0093H67.0493Z" fill="#009BDC" fill-opacity="0.45" stroke="#009BDC"/>
<path d="M45.0947 81.4656C44.8258 79.2547 43.0893 78.4225 43.0893 78.4225C43.0893 78.4225 42.9178 77.3049 42.8444 77.0197C42.8016 76.8539 42.6821 76.616 42.2506 76.4365C42.2434 76.3997 42.2074 76.2402 42.1103 76.1948C42.0002 76.143 41.028 76.0096 40.7617 76.0007C40.4961 75.9915 39.6704 76.0681 39.4317 76.1948C39.2246 76.3047 39.2064 76.447 39.2048 76.4829C38.8359 76.6973 38.7593 76.9485 38.7593 76.9485L38.3923 78.4225H27.6083L27.2411 76.9485C27.2411 76.9485 27.1644 76.6973 26.7956 76.4829C26.7939 76.447 26.7754 76.3047 26.5686 76.1948C26.3299 76.0681 25.5045 75.9915 25.2383 76.0007C24.9723 76.0096 23.9998 76.143 23.8897 76.1948C23.793 76.2402 23.7572 76.4 23.7501 76.4365C23.3179 76.616 23.1984 76.8539 23.1559 77.0197C23.0822 77.3049 22.911 78.4225 22.911 78.4225C22.911 78.4225 21.1742 79.2547 20.9053 81.4656C20.6361 83.6765 20 89.0972 20 89.0972C20 89.0972 20.0977 91.0702 21.5898 91.7359C23.0818 92.4017 24.4271 91.7124 25.0879 90.7377C25.7487 89.7629 27.9668 85.7667 27.9668 85.7667L37.9725 85.7467C37.9725 85.7467 40.2513 89.7629 40.9124 90.7377C41.5729 91.7121 42.9182 92.4013 44.4102 91.7359C45.9023 91.0705 46 89.0972 46 89.0972C46 89.0972 45.3642 83.6765 45.0947 81.4656ZM24.33 79.7629C24.33 79.606 24.4622 79.4777 24.6236 79.4777H25.5529C25.7143 79.4777 25.8464 79.6063 25.8464 79.7629V80.4114C25.8464 80.568 25.7432 80.777 25.6172 80.8745L25.3178 81.1064C25.1915 81.2042 24.985 81.2042 24.8587 81.1064L24.5593 80.8745C24.4333 80.777 24.3297 80.568 24.3297 80.4114L24.33 79.7629ZM23.78 82.4146H23.1127C22.9513 82.4146 22.8191 82.2863 22.8191 82.1294V81.2261C22.8191 81.0692 22.9513 80.9412 23.1127 80.9412H23.78C23.9414 80.9412 24.156 81.0416 24.2566 81.1642L24.4953 81.4551C24.596 81.5777 24.596 81.7788 24.4953 81.901L24.2566 82.192C24.156 82.3139 23.9414 82.4146 23.78 82.4146ZM25.8468 83.6031C25.8468 83.7597 25.7146 83.888 25.5532 83.888H24.6239C24.4622 83.888 24.3304 83.7597 24.3304 83.6031V82.9546C24.3304 82.7977 24.4336 82.5896 24.5599 82.4915L24.8593 82.2596C24.9853 82.1618 25.1921 82.1618 25.3181 82.2596L25.6175 82.4915C25.7435 82.5896 25.8468 82.7977 25.8468 82.9546V83.6031ZM27.3576 82.1291C27.3576 82.286 27.2255 82.4143 27.0644 82.4143H26.3971C26.2354 82.4143 26.0211 82.3136 25.9205 82.191L25.6821 81.9001C25.5815 81.7778 25.5815 81.5768 25.6821 81.4542L25.9205 81.1632C26.0211 81.0406 26.2358 80.9403 26.3971 80.9403H27.0644C27.2258 80.9403 27.3576 81.0686 27.3576 81.2252V82.1291ZM32.0377 83.1299C32.0377 83.2868 31.9056 83.4151 31.7442 83.4151H31.0347C30.8733 83.4151 30.7411 83.2868 30.7411 83.1299V82.892C30.7411 82.7354 30.8733 82.6068 31.0347 82.6068H31.7442C31.9056 82.6068 32.0377 82.7354 32.0377 82.892V83.1299ZM34.9819 83.1077L33.936 83.4732C33.7843 83.5263 33.6597 83.4412 33.6597 83.2843V82.7376C33.6597 82.5811 33.7843 82.4959 33.936 82.549L34.9819 82.9146C35.1342 82.9676 35.1342 83.0546 34.9819 83.1077ZM38.7278 82.5331C38.1871 82.5331 37.7497 82.1072 37.7497 81.5822C37.7497 81.0572 38.1871 80.6312 38.7278 80.6312C39.2681 80.6312 39.7064 81.0572 39.7064 81.5822C39.7064 82.1072 39.2681 82.5331 38.7278 82.5331ZM40.8131 84.6417C40.2721 84.6417 39.8347 84.2158 39.8347 83.6905C39.8347 83.1655 40.2721 82.7399 40.8131 82.7399C41.3527 82.7399 41.7911 83.1655 41.7911 83.6905C41.7908 84.2158 41.3527 84.6417 40.8131 84.6417ZM40.8131 80.6204C40.2721 80.6204 39.8347 80.1945 39.8347 79.6692C39.8347 79.1445 40.2721 78.7186 40.8131 78.7186C41.3527 78.7186 41.7911 79.1445 41.7911 79.6692C41.7908 80.1945 41.3527 80.6204 40.8131 80.6204ZM42.9104 82.5331C42.3697 82.5331 41.9323 82.1072 41.9323 81.5822C41.9323 81.0572 42.3697 80.6315 42.9104 80.6315C43.4504 80.6315 43.889 81.0572 43.889 81.5822C43.889 82.1072 43.4504 82.5331 42.9104 82.5331Z" fill="#009BDC" fill-opacity="0.45"/>
<path d="M131.095 81.4656C130.826 79.2547 129.089 78.4225 129.089 78.4225C129.089 78.4225 128.918 77.3049 128.844 77.0197C128.802 76.8539 128.682 76.616 128.251 76.4365C128.243 76.3997 128.207 76.2402 128.11 76.1948C128 76.143 127.028 76.0096 126.762 76.0007C126.496 75.9915 125.67 76.0681 125.432 76.1948C125.225 76.3047 125.206 76.447 125.205 76.4829C124.836 76.6973 124.759 76.9485 124.759 76.9485L124.392 78.4225H113.608L113.241 76.9485C113.241 76.9485 113.164 76.6973 112.796 76.4829C112.794 76.447 112.775 76.3047 112.569 76.1948C112.33 76.0681 111.505 75.9915 111.238 76.0007C110.972 76.0096 110 76.143 109.89 76.1948C109.793 76.2402 109.757 76.4 109.75 76.4365C109.318 76.616 109.198 76.8539 109.156 77.0197C109.082 77.3049 108.911 78.4225 108.911 78.4225C108.911 78.4225 107.174 79.2547 106.905 81.4656C106.636 83.6765 106 89.0972 106 89.0972C106 89.0972 106.098 91.0702 107.59 91.7359C109.082 92.4017 110.427 91.7124 111.088 90.7377C111.749 89.7629 113.967 85.7667 113.967 85.7667L123.972 85.7467C123.972 85.7467 126.251 89.7629 126.912 90.7377C127.573 91.7121 128.918 92.4013 130.41 91.7359C131.902 91.0705 132 89.0972 132 89.0972C132 89.0972 131.364 83.6765 131.095 81.4656ZM110.33 79.7629C110.33 79.606 110.462 79.4777 110.624 79.4777H111.553C111.714 79.4777 111.846 79.6063 111.846 79.7629V80.4114C111.846 80.568 111.743 80.777 111.617 80.8745L111.318 81.1064C111.191 81.2042 110.985 81.2042 110.859 81.1064L110.559 80.8745C110.433 80.777 110.33 80.568 110.33 80.4114L110.33 79.7629ZM109.78 82.4146H109.113C108.951 82.4146 108.819 82.2863 108.819 82.1294V81.2261C108.819 81.0692 108.951 80.9412 109.113 80.9412H109.78C109.941 80.9412 110.156 81.0416 110.257 81.1642L110.495 81.4551C110.596 81.5777 110.596 81.7788 110.495 81.901L110.257 82.192C110.156 82.3139 109.941 82.4146 109.78 82.4146ZM111.847 83.6031C111.847 83.7597 111.715 83.888 111.553 83.888H110.624C110.462 83.888 110.33 83.7597 110.33 83.6031V82.9546C110.33 82.7977 110.434 82.5896 110.56 82.4915L110.859 82.2596C110.985 82.1618 111.192 82.1618 111.318 82.2596L111.618 82.4915C111.744 82.5896 111.847 82.7977 111.847 82.9546V83.6031ZM113.358 82.1291C113.358 82.286 113.225 82.4143 113.064 82.4143H112.397C112.235 82.4143 112.021 82.3136 111.92 82.191L111.682 81.9001C111.581 81.7778 111.581 81.5768 111.682 81.4542L111.92 81.1632C112.021 81.0406 112.236 80.9403 112.397 80.9403H113.064C113.226 80.9403 113.358 81.0686 113.358 81.2252V82.1291ZM118.038 83.1299C118.038 83.2868 117.906 83.4151 117.744 83.4151H117.035C116.873 83.4151 116.741 83.2868 116.741 83.1299V82.892C116.741 82.7354 116.873 82.6068 117.035 82.6068H117.744C117.906 82.6068 118.038 82.7354 118.038 82.892V83.1299ZM120.982 83.1077L119.936 83.4732C119.784 83.5263 119.66 83.4412 119.66 83.2843V82.7376C119.66 82.5811 119.784 82.4959 119.936 82.549L120.982 82.9146C121.134 82.9676 121.134 83.0546 120.982 83.1077ZM124.728 82.5331C124.187 82.5331 123.75 82.1072 123.75 81.5822C123.75 81.0572 124.187 80.6312 124.728 80.6312C125.268 80.6312 125.706 81.0572 125.706 81.5822C125.706 82.1072 125.268 82.5331 124.728 82.5331ZM126.813 84.6417C126.272 84.6417 125.835 84.2158 125.835 83.6905C125.835 83.1655 126.272 82.7399 126.813 82.7399C127.353 82.7399 127.791 83.1655 127.791 83.6905C127.791 84.2158 127.353 84.6417 126.813 84.6417ZM126.813 80.6204C126.272 80.6204 125.835 80.1945 125.835 79.6692C125.835 79.1445 126.272 78.7186 126.813 78.7186C127.353 78.7186 127.791 79.1445 127.791 79.6692C127.791 80.1945 127.353 80.6204 126.813 80.6204ZM128.91 82.5331C128.37 82.5331 127.932 82.1072 127.932 81.5822C127.932 81.0572 128.37 80.6315 128.91 80.6315C129.45 80.6315 129.889 81.0572 129.889 81.5822C129.889 82.1072 129.45 82.5331 128.91 82.5331Z" fill="#009BDC" fill-opacity="0.45"/>
<defs>
<clipPath id="clip0_5_46">
<rect width="6" height="6" fill="white" transform="translate(77 8) rotate(-180)"/>
</clipPath>
</defs>
</svg>
