<svg width="150" height="118" viewBox="0 0 150 118" fill="none" xmlns="http://www.w3.org/2000/svg">
<path d="M0.5 18C0.5 16.6193 1.61929 15.5 3 15.5H147C148.381 15.5 149.5 16.6193 149.5 18V92C149.5 93.3807 148.381 94.5 147 94.5H3C1.61929 94.5 0.5 93.3807 0.5 92V18Z" fill="#EFF6FA" stroke="#009BDC"/>
<path d="M130.687 28.9835H130.687C133.051 28.9835 134.448 31.6307 133.115 33.582L132.936 33.8432L132.936 33.8429L132.929 33.8541L129.151 40.484L129.15 40.4866L123.038 50.3074C122.314 51.4707 121.04 52.1779 119.67 52.1779L29.1255 52.1779C27.5616 52.1779 26.1436 51.2589 25.5049 49.8313L23.8996 46.2429L23.9001 46.2427L23.8937 46.231L20.5619 40.2021L20.5622 40.202L20.5573 40.1942L15.957 32.8973C14.841 31.0572 16.1691 28.7045 18.3216 28.7098L130.687 28.9835Z" stroke="#009BDC" stroke-width="0.317308"/>
<path d="M19.5681 40.1254L19.5621 40.1149L19.5558 40.1047L15.3292 33.2434C13.8947 30.9145 15.5746 27.9155 18.3098 27.9224L130.718 28.2034C133.398 28.2101 135.071 31.1092 133.736 33.4327L129.806 40.272L123.225 50.9899C122.59 52.0238 121.464 52.6538 120.25 52.6538L28.6806 52.6538C27.4217 52.6538 26.2604 51.976 25.6413 50.8798L19.5681 40.1254Z" stroke="#009BDC" stroke-opacity="0.45" stroke-width="1.26923"/>
<path d="M14.0183 33.0789C12.4921 30.3295 14.4803 26.9519 17.6249 26.9519L130.364 26.9519C134.308 26.9519 136.746 31.2526 134.72 34.6365L124.653 51.4539C123.736 52.9855 122.082 53.9231 120.297 53.9231L28.5774 53.9231C26.733 53.9231 25.0337 52.9228 24.1385 51.3102L14.0183 33.0789Z" stroke="#009BDC" stroke-width="1.90385"/>
<!-- <path d="M54.5 107.5C54.5 110.102 52.3255 112.599 48.4834 114.475C44.6747 116.335 39.3779 117.5 33.5 117.5C27.6221 117.5 22.3253 116.335 18.5166 114.475C14.6745 112.599 12.5 110.102 12.5 107.5C12.5 104.898 14.6745 102.401 18.5166 100.525C22.3253 98.6646 27.6221 97.5 33.5 97.5C39.3779 97.5 44.6747 98.6646 48.4834 100.525C52.3255 102.401 54.5 104.898 54.5 107.5Z" fill="#EFF6FA" stroke="#009BDC"/> -->
<!-- <path d="M34.4824 102.026V112H32.5137V104.296L30.1484 105.048V103.496L34.2705 102.026H34.4824Z" fill="#009BDC"/> -->
<!-- <path d="M139.5 107.5C139.5 110.102 137.325 112.599 133.483 114.475C129.675 116.335 124.378 117.5 118.5 117.5C112.622 117.5 107.325 116.335 103.517 114.475C99.6745 112.599 97.5 110.102 97.5 107.5C97.5 104.898 99.6745 102.401 103.517 100.525C107.325 98.6646 112.622 97.5 118.5 97.5C124.378 97.5 129.675 98.6646 133.483 100.525C137.325 102.401 139.5 104.898 139.5 107.5Z" fill="#EFF6FA" stroke="#009BDC"/> -->
<!-- <path d="M121.492 110.462V112H114.684V110.688L117.903 107.235C118.227 106.875 118.482 106.559 118.669 106.285C118.856 106.007 118.99 105.759 119.072 105.54C119.159 105.317 119.202 105.105 119.202 104.904C119.202 104.604 119.152 104.346 119.052 104.132C118.951 103.913 118.803 103.744 118.607 103.626C118.416 103.507 118.179 103.448 117.896 103.448C117.596 103.448 117.336 103.521 117.117 103.667C116.903 103.813 116.739 104.016 116.625 104.275C116.516 104.535 116.461 104.829 116.461 105.157H114.485C114.485 104.565 114.627 104.022 114.909 103.53C115.192 103.034 115.59 102.639 116.105 102.348C116.62 102.051 117.231 101.903 117.938 101.903C118.635 101.903 119.223 102.017 119.701 102.245C120.184 102.468 120.549 102.792 120.795 103.216C121.046 103.635 121.171 104.136 121.171 104.72C121.171 105.048 121.118 105.369 121.014 105.684C120.909 105.993 120.758 106.303 120.562 106.613C120.371 106.919 120.139 107.229 119.865 107.543C119.592 107.857 119.289 108.183 118.956 108.521L117.227 110.462H121.492Z" fill="#009BDC"/> -->
<path d="M26.5 78C25.6438 78 24.945 78.6612 24.8813 79.5H23.375C22.0513 79.5 20.9612 80.4763 20.78 81.75H20.5625C19.6988 81.75 19 82.4487 19 83.3125V85.6875C19 86.5513 19.6988 87.25 20.5625 87.25H20.78C20.9625 88.5238 22.0513 89.5 23.375 89.5H30C30.4587 89.5 30.87 89.155 31.0975 88.7963C31.495 88.1662 32.1963 87.75 33 87.75C33.8037 87.75 34.505 88.1663 34.9025 88.7963C35.1288 89.155 35.5413 89.5 36 89.5H42.625C43.95 89.5 45.0388 88.5237 45.2212 87.25H45.4375C46.3012 87.25 47 86.5513 47 85.6875V83.3125C47 82.4487 46.3012 81.75 45.4375 81.75H45.2212C45.04 80.4762 43.95 79.5 42.625 79.5H41.1187C41.055 78.6612 40.3562 78 39.5 78H26.5ZM23.375 79.75H42.625C43.9425 79.75 45 80.8075 45 82.125V86.8751C45 88.1926 43.9425 89.2501 42.625 89.2501H36C35.6763 89.2501 35.3038 88.9626 35.1138 88.6627C34.6713 87.9626 33.8913 87.5002 33 87.5002C32.1087 87.5002 31.3287 87.9626 30.8862 88.6627C30.6962 88.9627 30.3237 89.2501 30 89.2501H23.375C22.0575 89.2501 21 88.1926 21 86.8751V82.125C21 80.8075 22.0575 79.75 23.375 79.75ZM30.5002 81.25C30.2252 81.25 30.0002 81.475 30.0002 81.75C30.0002 82.025 30.2252 82.25 30.5002 82.25H35.5002C35.7752 82.25 36.0002 82.025 36.0002 81.75C36.0002 81.475 35.7752 81.25 35.5002 81.25H30.5002ZM23.1251 87.0001C22.9201 87.0001 22.7501 87.1689 22.7501 87.3751C22.7501 87.5814 22.9201 87.7501 23.1251 87.7501C23.3313 87.7501 23.5001 87.5814 23.5001 87.3751C23.5001 87.1689 23.3314 87.0001 23.1251 87.0001ZM24.6251 87.0001C24.4201 87.0001 24.2501 87.1689 24.2501 87.3751C24.2501 87.5814 24.4201 87.7501 24.6251 87.7501C24.8313 87.7501 25.0001 87.5814 25.0001 87.3751C25.0001 87.1689 24.8314 87.0001 24.6251 87.0001Z" fill="#009BDC" fill-opacity="0.45"/>
<path d="M113.5 78C112.644 78 111.945 78.6612 111.881 79.5H110.375C109.051 79.5 107.961 80.4763 107.78 81.75H107.563C106.699 81.75 106 82.4487 106 83.3125V85.6875C106 86.5513 106.699 87.25 107.563 87.25H107.78C107.963 88.5238 109.051 89.5 110.375 89.5H117C117.459 89.5 117.87 89.155 118.097 88.7963C118.495 88.1662 119.196 87.75 120 87.75C120.804 87.75 121.505 88.1663 121.903 88.7963C122.129 89.155 122.541 89.5 123 89.5H129.625C130.95 89.5 132.039 88.5237 132.221 87.25H132.437C133.301 87.25 134 86.5513 134 85.6875V83.3125C134 82.4487 133.301 81.75 132.437 81.75H132.221C132.04 80.4762 130.95 79.5 129.625 79.5H128.119C128.055 78.6612 127.356 78 126.5 78H113.5ZM110.375 79.75H129.625C130.942 79.75 132 80.8075 132 82.125V86.8751C132 88.1926 130.942 89.2501 129.625 89.2501H123C122.676 89.2501 122.304 88.9626 122.114 88.6627C121.671 87.9626 120.891 87.5002 120 87.5002C119.109 87.5002 118.329 87.9626 117.886 88.6627C117.696 88.9627 117.324 89.2501 117 89.2501H110.375C109.058 89.2501 108 88.1926 108 86.8751V82.125C108 80.8075 109.058 79.75 110.375 79.75ZM117.5 81.25C117.225 81.25 117 81.475 117 81.75C117 82.025 117.225 82.25 117.5 82.25H122.5C122.775 82.25 123 82.025 123 81.75C123 81.475 122.775 81.25 122.5 81.25H117.5ZM110.125 87.0001C109.92 87.0001 109.75 87.1689 109.75 87.3751C109.75 87.5814 109.92 87.7501 110.125 87.7501C110.331 87.7501 110.5 87.5814 110.5 87.3751C110.5 87.1689 110.331 87.0001 110.125 87.0001ZM111.625 87.0001C111.42 87.0001 111.25 87.1689 111.25 87.3751C111.25 87.5814 111.42 87.7501 111.625 87.7501C111.831 87.7501 112 87.5814 112 87.3751C112 87.1689 111.831 87.0001 111.625 87.0001Z" fill="#009BDC" fill-opacity="0.45"/>
<path d="M88.0536 61.7037H70.6534L71.5032 60.529C71.5096 60.5211 71.5171 60.5114 71.5251 60.5H86.8498L88.0536 61.7037Z" fill="#009BDC" fill-opacity="0.45" stroke="#009BDC"/>
<mask id="path-14-inside-1_5_196" fill="white">
<path d="M60.5517 68.3018H89.9429L88.8803 67.3055H61.6143L60.5517 68.3018Z"/>
</mask>
<path d="M60.5517 68.3018H89.9429L88.8803 67.3055H61.6143L60.5517 68.3018Z" fill="#009BDC" fill-opacity="0.45"/>
<path d="M60.5517 68.3018L59.8677 67.5722L58.0229 69.3018H60.5517V68.3018ZM89.9429 68.3018V69.3018H92.4717L90.6269 67.5722L89.9429 68.3018ZM88.8803 67.3055L89.5642 66.576L89.2757 66.3055H88.8803V67.3055ZM61.6143 67.3055V66.3055H61.2188L60.9304 66.576L61.6143 67.3055ZM60.5517 69.3018H89.9429V67.3018H60.5517V69.3018ZM90.6269 67.5722L89.5642 66.576L88.1963 68.0351L89.259 69.0313L90.6269 67.5722ZM88.8803 66.3055H61.6143V68.3055H88.8803V66.3055ZM60.9304 66.576L59.8677 67.5722L61.2356 69.0313L62.2982 68.0351L60.9304 66.576Z" fill="#009BDC" mask="url(#path-14-inside-1_5_196)"/>
<path d="M62.441 61.7098L63.6508 60.5H68.8L67.9274 61.7098H62.441Z" fill="#009BDC" fill-opacity="0.45" stroke="#009BDC"/>
<path d="M83.9864 65.598H69.2568V63.9173H84.4201C84.0683 64.1437 83.834 64.5384 83.834 64.9931C83.834 65.2118 83.8892 65.4178 83.9864 65.598ZM86.0455 64.1193C85.9735 64.0425 85.8922 63.9746 85.8033 63.9173H86.4717C86.3142 63.9535 86.1695 64.0236 86.0455 64.1193ZM89.8859 64.1862C89.7463 64.056 89.5731 63.9615 89.381 63.9173H89.8357L89.8859 64.1862ZM90.1268 65.4747L90.1498 65.598H90.0565C90.0825 65.5586 90.106 65.5174 90.1268 65.4747Z" fill="#009BDC" fill-opacity="0.45" stroke="#009BDC"/>
<path d="M69.2568 71.69V70.0093H90.5629L90.8885 71.69H69.2568Z" fill="#009BDC" fill-opacity="0.45" stroke="#009BDC"/>
<path d="M60.3508 65.598L60.665 63.9173H67.0493V65.598H60.3508Z" fill="#009BDC" fill-opacity="0.45" stroke="#009BDC"/>
<path d="M67.0493 70.0093V71.69H59.6061L59.9317 70.0093H67.0493Z" fill="#009BDC" fill-opacity="0.45" stroke="#009BDC"/>
</svg>
